<svg width="233" height="170" viewBox="0 0 233 170" fill="none" xmlns="http://www.w3.org/2000/svg">
<path fill-rule="evenodd" clip-rule="evenodd" d="M218.663 120.943C218.294 66.5519 175.349 22.0919 121.56 19.2885V10.7904H140.26C143.239 10.7904 145.655 8.37417 145.655 5.3952C145.655 2.41622 143.239 0 140.26 0H92.0671C89.0881 0 86.6719 2.41622 86.6719 5.3952C86.6719 8.37417 89.0881 10.7904 92.0671 10.7904H110.77V19.2911C56.7505 22.1048 13.6638 66.9417 13.6638 121.645C13.6638 124.624 16.08 127.04 19.059 127.04H213.268C213.28 127.043 213.291 127.045 213.3 127.044C213.305 127.043 213.309 127.042 213.312 127.04C216.291 127.04 218.707 124.624 218.707 121.645C218.707 121.407 218.692 121.17 218.663 120.943ZM24.609 116.25C27.4151 68.186 67.4066 29.9395 116.165 29.9395C164.923 29.9395 204.914 68.186 207.72 116.252H24.609V116.25ZM51.3345 97.3588C51.1177 97.3588 50.8982 97.3381 50.6762 97.2943C48.9234 96.9303 47.8005 95.2214 48.1619 93.4686C51.4842 77.3759 60.1837 60.9735 70.8579 50.6581C72.1434 49.4138 74.1931 49.4526 75.4348 50.7329C76.6739 52.0185 76.6403 54.0707 75.3548 55.3098C65.7157 64.6262 57.5274 80.12 54.4993 94.7774C54.1844 96.3082 52.8395 97.3588 51.3345 97.3588ZM5.39262 169.91H226.934C229.913 169.91 232.329 167.496 232.329 164.515C232.329 154.151 227.381 148.836 223.767 144.954L223.766 144.953C220.806 141.772 219.381 140.1 219.381 136.821C219.381 133.842 216.964 131.426 213.985 131.426H18.3385C15.3595 131.426 12.9433 133.842 12.9433 136.821C12.9433 140.097 11.5184 141.772 8.55745 144.953L8.55261 144.958C4.94161 148.84 0 154.152 0 164.515C0 167.496 2.41364 169.91 5.39262 169.91ZM220.679 159.12H11.6474C12.6413 156.404 14.4096 154.501 16.4566 152.302C18.847 149.736 21.6686 146.7 22.9877 142.214H209.341C210.658 146.7 213.479 149.736 215.872 152.302C217.919 154.501 219.685 156.401 220.679 159.12Z" fill="#0B0F10"/>
</svg>
