<svg width="160" height="194" viewBox="0 0 160 194" fill="none" xmlns="http://www.w3.org/2000/svg">
<path d="M39.425 81.414V163.372C39.425 180.26 53.1639 194 70.0509 194C86.9379 194 100.677 180.26 100.677 163.372V97.783C100.677 88.1475 108.603 80.309 118.347 80.309C128.09 80.309 136.017 88.148 136.017 97.783V124.591C127.685 126.707 121.503 134.269 121.503 143.25C121.503 153.865 130.138 162.5 140.752 162.5C151.365 162.5 160 153.865 160 143.25C160 134.461 154.078 127.034 146.016 124.738V97.783C146.016 82.6335 133.603 70.309 118.347 70.309C103.089 70.309 90.6776 82.634 90.6776 97.783V163.372C90.6776 174.746 81.4244 184 70.0509 184C58.6769 184 49.4242 174.746 49.4242 163.372V81.414C71.5747 78.9215 88.8492 60.076 88.8492 37.2685V5C88.8492 2.2385 86.6109 0 83.8497 0C81.0884 0 78.8501 2.2385 78.8501 5V37.268C78.8501 56.252 63.4069 71.6965 44.4246 71.6965C25.4423 71.6965 9.99912 56.252 9.99912 37.268V5C9.99912 2.2385 7.76082 0 4.99956 0C2.2383 0 0 2.2385 0 5V37.268C0 60.076 17.274 78.921 39.425 81.414Z" fill="#0B0F10"/>
</svg>
