<svg width="206" height="260" viewBox="0 0 206 260" fill="none" xmlns="http://www.w3.org/2000/svg">
<path fill-rule="evenodd" clip-rule="evenodd" d="M198.042 221.437L205.15 247.957C205.697 250.691 205.15 253.699 203.236 256.159C201.596 258.346 198.862 259.714 195.855 259.714H9.3915C6.65744 259.714 3.64997 258.62 2.00953 256.159C0.0956909 253.972 -0.45112 250.965 0.369099 247.957L7.47766 221.437C12.1256 203.118 27.1629 189.722 46.0279 187.261L62.7057 185.074L67.627 170.583C54.2301 161.287 44.1141 147.07 40.013 129.572C35.3651 127.112 27.7097 120.823 27.7097 104.966C27.7097 93.4826 29.6236 86.374 33.7247 82.5463C36.1853 79.8123 39.4662 79.2654 41.6534 78.992C41.1066 63.1345 43.0205 44.5429 45.7545 36.3407C41.38 21.8501 46.5747 8.17983 46.5747 8.17983C46.5747 8.17983 55.8706 7.08621 67.0802 12.2809C66.6744 10.0487 65.5154 6.31038 64.7213 3.74882L64.7213 3.74868C64.4455 2.85907 64.2137 2.11141 64.0727 1.61808C96.3347 -4.12345 124.769 6.26599 144.454 19.3895C158.398 15.015 167.147 26.498 167.694 44.5429C167.967 53.2919 166.327 67.2356 164.413 78.992C166.6 79.2654 169.608 80.0857 172.068 82.8197C175.896 86.6474 177.81 93.4826 177.81 104.966C177.81 120.823 170.154 127.112 165.506 129.572C161.405 147.07 151.289 161.561 137.892 170.857L142.814 185.074L159.492 187.261C178.083 189.722 193.394 203.118 198.042 221.437ZM45.7545 120.003C47.6684 120.55 49.5822 122.19 49.8556 124.377C55.0503 151.445 77.1962 171.13 102.35 170.857C128.05 170.857 149.922 151.171 155.117 124.104C155.39 121.917 157.031 120.276 159.218 119.73C159.232 119.723 159.249 119.715 159.271 119.705C159.289 119.697 159.309 119.689 159.332 119.679L159.357 119.668C160.473 119.193 166.6 116.585 166.6 104.419C166.6 93.2092 164.413 90.4751 163.866 89.9283C163.593 89.3815 162.772 89.3815 162.226 89.3815C161.405 92.9357 160.859 95.9432 160.585 97.8571C160.585 99.2241 159.492 100.044 158.124 100.044H154.57C153.203 100.044 152.11 98.6773 152.11 97.3102C152.656 89.9283 152.93 69.1494 142.814 55.7525C103.814 74.0251 76.2403 61.8286 61.992 55.5262L61.8855 55.4791C51.7695 71.3367 52.3163 90.2017 52.8631 97.3102C53.1365 98.6773 52.0429 100.044 50.4024 100.044H46.0279C44.9343 100.044 43.8407 99.2241 43.5673 98.1305C43.0205 95.6698 42.4737 92.9357 42.2002 89.6549C41.9268 89.9283 41.38 89.9283 41.38 89.9283C40.2864 90.7485 38.3726 93.4826 38.3726 104.692C38.3726 117.542 44.9343 119.73 45.7545 120.003ZM128.323 176.051C120.668 179.879 111.919 182.066 102.896 182.066C93.6006 182.066 84.8516 179.606 76.9228 176.051L72.0015 190.268C90.3197 203.665 114.926 203.665 133.245 190.268L128.323 176.051ZM92.5063 96.7634C92.5063 102.048 88.222 106.333 82.937 106.333C77.6521 106.333 73.3678 102.048 73.3678 96.7634C73.3678 91.4785 77.6521 87.1942 82.937 87.1942C88.222 87.1942 92.5063 91.4785 92.5063 96.7634ZM122.582 106.333C127.867 106.333 132.151 102.048 132.151 96.7634C132.151 91.4785 127.867 87.1942 122.582 87.1942C117.297 87.1942 113.012 91.4785 113.012 96.7634C113.012 102.048 117.297 106.333 122.582 106.333ZM82.9376 138.048C81.5705 136.407 81.8439 133.947 83.4844 132.58C85.1248 131.213 87.5855 131.213 88.9525 133.126C94.1472 139.141 111.098 139.141 116.293 133.126C117.66 131.213 120.121 131.213 121.761 132.58C123.402 133.947 123.675 136.407 122.308 138.048C118.207 142.696 110.825 145.703 102.623 145.703C94.4206 145.703 87.0387 142.696 82.9376 138.048Z" fill="#0B0F10"/>
</svg>
