<svg xmlns="http://www.w3.org/2000/svg" xmlns:xlink="http://www.w3.org/1999/xlink" version="1.1" x="0px" y="0px" viewBox="0 0 512 640" style="enable-background:new 0 0 512 512;" xml:space="preserve"><g><path d="M174.843,224.828v163.915c0,33.777,27.48,61.257,61.257,61.257s61.257-27.48,61.257-61.257V257.566   c0-19.271,15.855-34.948,35.343-34.948s35.343,15.678,35.343,34.948v53.616c-16.664,4.231-29.029,19.356-29.029,37.318   c0,21.229,17.271,38.5,38.5,38.5s38.5-17.271,38.5-38.5c0-17.578-11.846-32.432-27.971-37.024v-53.91   c0-30.299-24.827-54.948-55.343-54.948c-30.517,0-55.343,24.65-55.343,54.948v131.177c0,22.749-18.508,41.257-41.257,41.257   c-22.75,0-41.257-18.508-41.257-41.257V224.828c44.305-4.985,78.857-42.676,78.857-88.291V72c0-5.523-4.477-10-10-10   s-10,4.477-10,10v64.536c0,37.968-30.889,68.857-68.857,68.857c-37.968,0-68.857-30.889-68.857-68.857V72c0-5.523-4.477-10-10-10   s-10,4.477-10,10v64.536C95.986,182.152,130.537,219.842,174.843,224.828z"/></g><text x="0" y="527" fill="#000000" font-size="5px" font-weight="bold" font-family="'Helvetica Neue', Helvetica, Arial-Unicode, Arial, Sans-serif">Created by Panda Icons</text><text x="0" y="532" fill="#000000" font-size="5px" font-weight="bold" font-family="'Helvetica Neue', Helvetica, Arial-Unicode, Arial, Sans-serif">from the Noun Project</text></svg>