<svg width="147" height="132" viewBox="0 0 147 132" fill="none" xmlns="http://www.w3.org/2000/svg">
<path fill-rule="evenodd" clip-rule="evenodd" d="M48.2134 48.056C61.4837 48.056 72.2414 37.2983 72.2414 24.028C72.2414 10.7577 61.4837 0 48.2134 0C34.9431 0 24.1854 10.7577 24.1854 24.028C24.1854 37.2983 34.9431 48.056 48.2134 48.056ZM131.542 6.46908H99.1964C91.187 6.46908 84.5639 13.0922 84.5639 21.1015V40.3547C84.5639 48.3641 91.187 54.9872 99.1964 54.9872H103.971C103.971 57.6056 103.509 61.1482 102.123 64.9988C101.507 66.6931 101.969 68.3874 103.201 69.6196C103.971 70.2357 104.895 70.5437 105.819 70.5437C106.436 70.5437 107.206 70.3897 107.822 70.0817C114.907 66.077 120.76 59.1459 123.84 54.9872H131.542C139.551 54.9872 146.174 48.3641 146.174 40.3547V21.1015C146.174 12.9382 139.551 6.46908 131.542 6.46908ZM129.077 40.8168H101.661C99.9665 40.8168 98.5803 39.4306 98.5803 37.7363C98.5803 36.042 99.9665 34.6558 101.661 34.6558H128.923C130.618 34.6558 132.004 36.042 132.004 37.7363C132.004 39.4306 130.772 40.8168 129.077 40.8168ZM129.077 26.1844H101.661C99.9665 26.1844 98.5803 24.7981 98.5803 23.1039C98.5803 21.4096 99.9665 20.0233 101.661 20.0233H128.923C130.618 20.0233 132.004 21.4096 132.004 23.1039C132.158 24.7981 130.772 26.1844 129.077 26.1844ZM90.4166 81.7876C95.6535 84.252 105.665 83.944 109.67 83.3279C114.753 82.7118 119.373 86.1003 120.298 91.3372C120.914 96.266 117.525 101.041 112.442 101.657C112.356 101.665 112.233 101.677 112.074 101.693C109.104 101.996 93.8428 103.548 83.0234 98.5764C77.0164 95.804 72.8577 90.259 70.0852 84.8681L71.3174 125.993C71.3174 129.228 68.699 132 65.4645 132H31.5788C28.1903 132 25.5718 129.228 25.7258 125.993L26.958 86.1003C25.2638 89.4889 23.7235 92.8775 23.1074 95.0338C21.5672 100.579 18.1786 117.83 18.1786 117.984C17.4085 122.296 13.5578 125.377 9.2451 125.377H9.24501C8.62893 125.377 8.01286 125.377 7.39679 125.223C2.46797 124.299 -0.766569 119.37 0.157585 114.441C0.168035 114.389 0.193372 114.261 0.232009 114.065C0.762886 111.381 3.80467 96.0021 5.24043 90.259C6.62666 84.4061 10.7854 76.7048 14.79 69.3115L15.7142 67.4632C19.8729 59.6079 25.8799 55.7573 33.7352 55.7573H64.0782C73.9359 55.7573 78.8647 61.1482 81.1751 65.6149C81.7912 66.5391 82.4073 67.9253 83.0234 69.6196C84.2556 72.8541 87.4901 80.4014 90.4166 81.7876Z" fill="#0B0F10"/>
</svg>
